<svg xmlns="http://www.w3.org/2000/svg" xmlns:xlink="http://www.w3.org/1999/xlink" width="36" height="36" viewBox="0 0 36 36">
  <defs>
    <clipPath id="clip-path">
      <rect id="矩形_9880" data-name="矩形 9880" width="36" height="36" transform="translate(857 738)" fill="#fff"/>
    </clipPath>
  </defs>
  <g id="蒙版组_30" data-name="蒙版组 30" transform="translate(-857 -738)" clip-path="url(#clip-path)">
    <path id="inbox-in" d="M7.6,7.418A1.042,1.042,0,0,1,9.07,5.945l2.389,2.389V1.042a1.042,1.042,0,0,1,2.083,0V8.333L15.93,5.945A1.042,1.042,0,0,1,17.4,7.418l-3.43,3.43a2.076,2.076,0,0,1-1.464.608l-.009,0-.009,0a2.076,2.076,0,0,1-1.464-.608L7.6,7.418ZM21.875,12.5H18.75a2.085,2.085,0,0,0-2.083,2.083,2.085,2.085,0,0,1-2.083,2.083H10.417a2.085,2.085,0,0,1-2.083-2.083A2.085,2.085,0,0,0,6.25,12.5H3.125A3.129,3.129,0,0,0,0,15.625v4.167A5.214,5.214,0,0,0,5.208,25H19.792A5.214,5.214,0,0,0,25,19.792V15.625A3.129,3.129,0,0,0,21.875,12.5Z" transform="translate(863 744)" fill="#3f526e"/>
  </g>
</svg>
