<svg xmlns="http://www.w3.org/2000/svg" xmlns:xlink="http://www.w3.org/1999/xlink" width="36" height="36" viewBox="0 0 36 36">
  <defs>
    <clipPath id="clip-path">
      <rect id="矩形_9882" data-name="矩形 9882" width="36" height="36" transform="translate(552 738)" fill="#fff"/>
    </clipPath>
  </defs>
  <g id="蒙版组_34" data-name="蒙版组 34" transform="translate(-552 -738)" clip-path="url(#clip-path)">
    <g id="flame" transform="translate(557.086 741.998)">
      <path id="路径_25464" data-name="路径 25464" d="M15.746,18.254c0-1.5-1.031-3.55-2.9-5.773A1.088,1.088,0,0,0,12,12.092h0a1.117,1.117,0,0,0-.854.391h0C9.1,14.88,8.1,17,8.273,18.625a3.668,3.668,0,0,0,1.582,2.557A3.622,3.622,0,0,0,12,22a3.75,3.75,0,0,0,3.746-3.746Z" transform="translate(1.412 3.056)" fill="#3f526e"/>
      <path id="路径_25465" data-name="路径 25465" d="M18.631,3.269c-.886-.753-1.816-1.542-2.763-2.4A3.328,3.328,0,0,0,13.186.031,3.21,3.21,0,0,0,10.9,1.5,22.987,22.987,0,0,0,8.086,8.766a7.027,7.027,0,0,1-.537-.919,2.255,2.255,0,0,0-3.72-.533A10.224,10.224,0,0,0,.915,14.553a12.377,12.377,0,0,0,9.268,12.1,13.135,13.135,0,0,0,3.13.4,6.259,6.259,0,0,1-3.7-1.382A6.348,6.348,0,0,1,6.968,21.23c-.259-2.491,1.007-5.392,3.763-8.621h0a3.511,3.511,0,0,1,2.681-1.232h.011a3.5,3.5,0,0,1,2.667,1.24c1.734,2.06,3.8,5.113,3.8,7.96a6.481,6.481,0,0,1-6.042,6.456A12.464,12.464,0,0,0,25.914,14.56C25.909,9.453,22.536,6.589,18.631,3.269Z" transform="translate(0)" fill="#3f526e"/>
    </g>
  </g>
</svg>
