<svg xmlns="http://www.w3.org/2000/svg" xmlns:xlink="http://www.w3.org/1999/xlink" width="36" height="36" viewBox="0 0 36 36">
  <defs>
    <clipPath id="clip-path">
      <rect id="矩形_9879" data-name="矩形 9879" width="36" height="36" transform="translate(702 738)" fill="#fff"/>
    </clipPath>
    <clipPath id="clip-path-2">
      <rect id="矩形_8042" data-name="矩形 8042" width="25" height="25" fill="#3f526e"/>
    </clipPath>
  </defs>
  <g id="蒙版组_32" data-name="蒙版组 32" transform="translate(-702 -738)" clip-path="url(#clip-path)">
    <g id="组_20969" data-name="组 20969" transform="translate(708 743)">
      <g id="组_17444" data-name="组 17444" clip-path="url(#clip-path-2)">
        <path id="路径_25471" data-name="路径 25471" d="M243.075,192.209a.8.8,0,0,0-1.211.181c-1.426,2.413-1.1,5.867-2.377,5.867-.605,0-.51-1.046-.8-1.692a.667.667,0,0,0-1.131-.139,6.774,6.774,0,0,0-1.3,6.683,6.953,6.953,0,0,0,6.693,4.51,6.771,6.771,0,0,0,6.37-6.759c0-3.559-3.947-6.6-6.25-8.651Z" transform="translate(-224.325 -182.631)" fill="#a7364e"/>
        <path id="路径_25472" data-name="路径 25472" d="M19.792,0H5.208A5.214,5.214,0,0,0,0,5.209V19.793A5.214,5.214,0,0,0,5.208,25H12.76a9.708,9.708,0,0,1-2.746-3.722h0a8.828,8.828,0,0,1,1.6-8.793,2.732,2.732,0,0,1,2.512-1,2.839,2.839,0,0,1,.489.109A10.961,10.961,0,0,1,15.745,8.7a2.879,2.879,0,0,1,4.392-.676c.23.205.477.421.734.645A29.579,29.579,0,0,1,25,12.808v-7.6A5.214,5.214,0,0,0,19.792,0M11.024,5.892,10.34,8.518a.653.653,0,0,1-1.195.165l-.262-.446L7.242,9.2a1.96,1.96,0,0,0-.7,2.68.326.326,0,0,1-.563.33L4.825,10.238A2.94,2.94,0,0,1,5.873,6.219l1.36-.8-.262-.447A.653.653,0,0,1,7.7,4.013l2.625.685a.979.979,0,0,1,.7,1.194" transform="translate(0 -0.001)" fill="#3f526e"/>
      </g>
    </g>
  </g>
</svg>
